<svg width="931" height="86" viewBox="0 0 931 86" fill="none" xmlns="http://www.w3.org/2000/svg">
<g id="Chrome Default Theme" clip-path="url(#clip0_4106_1226)">
<g id="Header">
<rect width="931" height="86" fill="#DFE1E6"/>
<g id="Header Top" clip-path="url(#clip1_4106_1226)">
<rect width="931" height="43" fill="#DFE1E6"/>
<g id="Tabs">
<rect width="527" height="34" transform="translate(0 9)" fill="url(#paint0_linear_4106_1226)"/>
<g id="Tab Bookend">
<path d="M0 9H40V32C40 38.0751 35.0751 43 29 43H0V9Z" fill="#DFE1E6"/>
<g id="Button  Close ">
<rect x="5" y="9" width="28" height="28" rx="8" fill="white"/>
<g id="Icon Chevron">
<path id="Vector" fill-rule="evenodd" clip-rule="evenodd" d="M21.7704 23.442C22.0144 23.1979 22.0144 22.8022 21.7704 22.5581C21.5263 22.314 21.1306 22.314 20.8865 22.5581L18.5 24.9446L16.1135 22.5581C15.8694 22.314 15.4737 22.314 15.2296 22.5581C14.9856 22.8022 14.9856 23.1979 15.2296 23.442L18.0581 26.2704C18.3021 26.5145 18.6979 26.5145 18.9419 26.2704L21.7704 23.442Z" fill="black"/>
</g>
</g>
</g>
<g id="tab-shell">
<path d="M40 17C40 12.5817 43.5817 9 48 9H265C269.418 9 273 12.5817 273 17V43H40V17Z" fill="white"/>
<g id="tab-favicon-placeholder">
<rect x="54" y="18" width="16" height="16" rx="4" fill="#D0D5DC"/>
<path d="M59 26.2C59 25.5372 59.5373 25 60.2 25H63.8C64.4628 25 65 25.5372 65 26.2V27H59V26.2Z" fill="#8E949D"/>
<circle cx="62" cy="22" r="2.6" fill="#8E949D"/>
</g>
<text id="tab-title" fill="#1F1F1F" style="white-space: pre" xml:space="preserve" font-family="Segoe UI" font-size="12" letter-spacing="0em"><tspan x="78" y="30.3636">Website Name</tspan></text>
<g id="Button  Close _2">
<g id="Icon X Close">
<g id="Vector_2">
<path fill-rule="evenodd" clip-rule="evenodd" d="M260.828 24.1716C261.121 24.4645 261.121 24.9393 260.828 25.2322L256.232 29.8284C255.939 30.1213 255.464 30.1213 255.172 29.8284C254.879 29.5355 254.879 29.0607 255.172 28.7678L259.768 24.1716C260.061 23.8787 260.536 23.8787 260.828 24.1716Z" fill="black"/>
<path fill-rule="evenodd" clip-rule="evenodd" d="M260.828 29.8284C260.536 30.1213 260.061 30.1213 259.768 29.8284L255.172 25.2322C254.879 24.9393 254.879 24.4645 255.172 24.1716C255.464 23.8787 255.939 23.8787 256.232 24.1716L260.828 28.7678C261.121 29.0607 261.121 29.5355 260.828 29.8284Z" fill="black"/>
</g>
</g>
</g>
</g>
<g id="Tab Content_2">
<path d="M273 17C273 12.5817 276.582 9 281 9H519C523.418 9 527 12.5817 527 17V43H281C276.582 43 273 39.4183 273 35V17Z" fill="#DFE1E6"/>
<g id="Icon + Plus">
<g id="Vector_3">
<path fill-rule="evenodd" clip-rule="evenodd" d="M298 26C298 26.4142 297.664 26.75 297.25 26.75L290.75 26.75C290.336 26.75 290 26.4142 290 26C290 25.5858 290.336 25.25 290.75 25.25L297.25 25.25C297.664 25.25 298 25.5858 298 26Z" fill="#5E6064"/>
<path fill-rule="evenodd" clip-rule="evenodd" d="M294 30C293.586 30 293.25 29.6642 293.25 29.25L293.25 22.75C293.25 22.3358 293.586 22 294 22C294.414 22 294.75 22.3358 294.75 22.75L294.75 29.25C294.75 29.6642 294.414 30 294 30Z" fill="#5E6064"/>
</g>
</g>
</g>
</g>
<g id="Application Controller" clip-path="url(#clip2_4106_1226)">
<g id="Minimize">
<g id="Icon Minimize">
<rect id="icon" x="810.5" y="16.5" width="10" height="1" fill="#84888C"/>
</g>
</g>
<g id="Maximize">
<g id="Icon Maximize">
<rect id="icon_2" x="856" y="12.5" width="9" height="9" stroke="#84888C"/>
</g>
</g>
<g id="Close">
<g id="Icon Close Window">
<path id="icon_3" d="M901.697 12.4038L902.404 11.6967L907 16.2929L911.596 11.6967L912.303 12.4038L907.707 17L912.303 21.5962L911.596 22.3033L907 17.7071L902.404 22.3033L901.697 21.5962L906.293 17L901.697 12.4038Z" fill="#84888C"/>
</g>
</g>
</g>
</g>
<g id="Header Base">
<mask id="path-12-inside-1_4106_1226" fill="white">
<path d="M0 54C0 47.9249 4.92487 43 11 43H931V86H0V54Z"/>
</mask>
<path d="M0 54C0 47.9249 4.92487 43 11 43H931V86H0V54Z" fill="white"/>
<path d="M0 43H931H0M931 87H0V85H931V87ZM931 85M0 86V43V86M0 86M931 43V86V43" fill="#DBDCDD" mask="url(#path-12-inside-1_4106_1226)"/>
<g id="Navigation">
<g id="Icons ">
<g id="Icon Back">
<path id="Vector_4" d="M20.2963 68.8907C20.3768 68.9647 20.4827 69.0038 20.5913 68.9997C20.6999 68.9956 20.8026 68.9486 20.8776 68.8688C20.9525 68.7889 20.9937 68.6825 20.9924 68.5723C20.9912 68.4621 20.9475 68.3567 20.8707 68.2787L17.398 64.923H25.5833C25.6938 64.923 25.7998 64.8784 25.878 64.7992C25.9561 64.7199 26 64.6124 26 64.5003C26 64.3882 25.9561 64.2807 25.878 64.2014C25.7998 64.1221 25.6938 64.0776 25.5833 64.0776H17.398L20.8707 60.7213C20.9475 60.6433 20.9912 60.5379 20.9924 60.4277C20.9937 60.3175 20.9525 60.2111 20.8776 60.1312C20.8026 60.0514 20.6999 60.0044 20.5913 60.0003C20.4827 59.9962 20.3768 60.0353 20.2963 60.1093L16.1742 64.0922C16.0839 64.1791 16.0252 64.2942 16.0075 64.4191C15.9973 64.4729 15.9975 64.5283 16.008 64.582C16.0259 64.7067 16.0846 64.8216 16.1747 64.9083L20.2963 68.8907Z" fill="#AAAAAA"/>
</g>
<g id="Icon Forward">
<path id="Vector_5" d="M47.7037 68.8907C47.6232 68.9647 47.5173 69.0038 47.4087 68.9997C47.3001 68.9956 47.1974 68.9486 47.1224 68.8688C47.0475 68.7889 47.0063 68.6825 47.0076 68.5723C47.0088 68.4621 47.0525 68.3567 47.1293 68.2787L50.602 64.923H42.4167C42.3062 64.923 42.2002 64.8784 42.122 64.7992C42.0439 64.7199 42 64.6124 42 64.5003C42 64.3882 42.0439 64.2807 42.122 64.2014C42.2002 64.1221 42.3062 64.0776 42.4167 64.0776H50.602L47.1293 60.7213C47.0525 60.6433 47.0088 60.5379 47.0076 60.4277C47.0063 60.3175 47.0475 60.2111 47.1224 60.1312C47.1974 60.0514 47.3001 60.0044 47.4087 60.0003C47.5173 59.9962 47.6232 60.0353 47.7037 60.1093L51.8258 64.0922C51.9161 64.1791 51.9748 64.2942 51.9925 64.4191C52.0027 64.4729 52.0025 64.5283 51.992 64.582C51.9741 64.7067 51.9154 64.8216 51.8253 64.9083L47.7037 68.8907Z" fill="#AAAAAA"/>
</g>
<g id="Icon Refresh">
<g id="Vector_6">
<path d="M72.9992 59.9992C71.9788 59.9994 70.9828 60.3118 70.1451 60.8945C69.3073 61.4771 68.6679 62.3022 68.3127 63.2589C67.9576 64.2155 67.9036 65.258 68.1581 66.2462C68.4126 67.2344 68.9634 68.1211 69.7365 68.7872C70.5096 69.4532 71.468 69.8668 72.483 69.9724C73.4979 70.0779 74.5209 69.8704 75.4145 69.3776C76.3081 68.8848 77.0296 68.1304 77.4819 67.2157C77.9343 66.301 78.096 65.2698 77.9452 64.2605C77.9006 63.9578 78.1219 63.6658 78.4279 63.6658C78.6746 63.6658 78.8919 63.8365 78.9292 64.0812C79.1457 65.4779 78.8621 66.9061 78.1285 68.1142C77.3949 69.3223 76.2584 70.2326 74.9194 70.6847C73.5803 71.1368 72.1246 71.1017 70.8088 70.5856C69.4931 70.0694 68.4018 69.1054 67.7273 67.8633C67.0528 66.6213 66.8385 65.181 67.122 63.7964C67.4055 62.4118 68.1687 61.1717 69.2771 60.2947C70.3854 59.4177 71.7678 58.9602 73.1805 59.0027C74.5933 59.0452 75.9456 59.5851 76.9992 60.5272V59.5965C76.9992 59.4638 77.0519 59.3367 77.1457 59.2429C77.2394 59.1491 77.3666 59.0965 77.4992 59.0965C77.6318 59.0965 77.759 59.1491 77.8528 59.2429C77.9465 59.3367 77.9992 59.4638 77.9992 59.5965V61.8325C77.9992 61.9651 77.9465 62.0923 77.8528 62.1861C77.759 62.2798 77.6318 62.3325 77.4992 62.3325H75.239C75.1064 62.3325 74.9793 62.2798 74.8855 62.1861C74.7917 62.0923 74.739 61.9651 74.739 61.8325C74.739 61.6999 74.7917 61.5727 74.8855 61.479C74.9793 61.3852 75.1064 61.3325 75.239 61.3325H76.3992C75.4755 60.4738 74.2605 59.9973 72.9992 59.9992Z" fill="#474747"/>
<path fill-rule="evenodd" clip-rule="evenodd" d="M73.173 59.2526C71.8192 59.2118 70.4944 59.6503 69.4322 60.4908C68.37 61.3312 67.6386 62.5196 67.3669 63.8466C67.0952 65.1735 67.3006 66.5537 67.947 67.744C68.5934 68.9343 69.6392 69.8582 70.9001 70.3528C72.161 70.8475 73.5561 70.8811 74.8394 70.4479C76.1227 70.0146 77.2118 69.1422 77.9148 67.9844C78.6178 66.8267 78.8896 65.458 78.6822 64.1195C78.6651 64.0079 78.5625 63.9158 78.4279 63.9158C78.2951 63.9158 78.167 64.0512 78.1925 64.224C78.3508 65.2837 78.181 66.3661 77.706 67.3265C77.231 68.287 76.4735 69.0791 75.5352 69.5965C74.597 70.1139 73.5228 70.3318 72.4571 70.221C71.3914 70.1102 70.3851 69.6759 69.5733 68.9766C68.7615 68.2772 68.1832 67.3462 67.916 66.3085C67.6488 65.2709 67.7054 64.1764 68.0784 63.1719C68.4513 62.1674 69.1227 61.301 70.0023 60.6892C70.8819 60.0774 71.9276 59.7494 72.999 59.7492C74.3235 59.7472 75.5994 60.2476 76.5694 61.1494L77.0353 61.5825H75.239C75.1727 61.5825 75.1092 61.6088 75.0623 61.6557C75.0154 61.7026 74.989 61.7662 74.989 61.8325C74.989 61.8988 75.0154 61.9624 75.0623 62.0093C75.1092 62.0562 75.1727 62.0825 75.239 62.0825H77.4992C77.5655 62.0825 77.6291 62.0562 77.676 62.0093C77.7229 61.9624 77.7492 61.8988 77.7492 61.8325V59.5965C77.7492 59.5302 77.7229 59.4666 77.676 59.4197C77.6291 59.3728 77.5655 59.3465 77.4992 59.3465C77.4329 59.3465 77.3693 59.3728 77.3224 59.4197C77.2756 59.4666 77.2492 59.5302 77.2492 59.5965V61.0861L76.8326 60.7135C75.8229 59.8107 74.5269 59.2934 73.173 59.2526ZM69.1219 60.0987C70.2765 59.1851 71.7165 58.7085 73.1881 58.7528C74.4795 58.7917 75.7225 59.2296 76.7492 59.9994V59.5965C76.7492 59.3975 76.8282 59.2068 76.9689 59.0661C77.1095 58.9255 77.3003 58.8465 77.4992 58.8465C77.6981 58.8465 77.8889 58.9255 78.0295 59.0661C78.1702 59.2068 78.2492 59.3975 78.2492 59.5965V61.8325C78.2492 62.0314 78.1702 62.2222 78.0295 62.3628C77.8889 62.5035 77.6981 62.5825 77.4992 62.5825H75.239C75.0401 62.5825 74.8494 62.5035 74.7087 62.3628C74.5681 62.2222 74.489 62.0314 74.489 61.8325C74.489 61.6336 74.5681 61.4428 74.7087 61.3022C74.8494 61.1615 75.0401 61.0825 75.239 61.0825H75.6887C74.9021 60.5414 73.9651 60.2477 72.9996 60.2492C72.0302 60.2493 71.0837 60.5461 70.2878 61.0997C69.492 61.6533 68.8845 62.4371 68.5471 63.3459C68.2097 64.2547 68.1584 65.245 68.4002 66.1838C68.642 67.1226 69.1652 67.965 69.8997 68.5978C70.6341 69.2305 71.5446 69.6234 72.5088 69.7237C73.4731 69.824 74.4449 69.6268 75.2938 69.1587C76.1427 68.6905 76.8281 67.9739 77.2578 67.1049C77.6876 66.2359 77.8412 65.2562 77.698 64.2974C77.6341 63.8649 77.9487 63.4158 78.4279 63.4158C78.7865 63.4158 79.1186 63.6656 79.1763 64.0432C79.4017 65.498 79.1063 66.9856 78.3422 68.244C77.5781 69.5024 76.3942 70.4506 74.9993 70.9216C73.6044 71.3925 72.0881 71.356 70.7175 70.8183C69.347 70.2807 68.2102 69.2764 67.5076 67.9826C66.805 66.6889 66.5817 65.1886 66.8771 63.7463C67.1724 62.3039 67.9674 61.0122 69.1219 60.0987Z" fill="#474747"/>
</g>
</g>
</g>
<g id="Search">
<rect x="94" y="52.5" width="725" height="24" rx="12" fill="#ECEFF7"/>
<g id="Icon Lock">
<path id="Vector_7" d="M117 57.8333C117.707 57.8333 118.386 58.1143 118.886 58.6144C119.386 59.1145 119.667 59.7927 119.667 60.5V61.8333H120.833C121.03 61.8333 121.225 61.8721 121.407 61.9475C121.589 62.0229 121.755 62.1334 121.894 62.2727C122.033 62.4119 122.144 62.5773 122.219 62.7593C122.295 62.9413 122.333 63.1363 122.333 63.3333V69.6666C122.333 69.8636 122.295 70.0587 122.219 70.2407C122.144 70.4227 122.033 70.588 121.894 70.7273C121.755 70.8666 121.589 70.9771 121.407 71.0525C121.225 71.1278 121.03 71.1666 120.833 71.1666H113.167C112.769 71.1666 112.387 71.0086 112.106 70.7273C111.825 70.446 111.667 70.0645 111.667 69.6666V63.3333C111.667 62.9355 111.825 62.554 112.106 62.2727C112.387 61.9913 112.769 61.8333 113.167 61.8333H114.333V60.5C114.333 59.7927 114.614 59.1145 115.114 58.6144C115.615 58.1143 116.293 57.8333 117 57.8333ZM120.833 62.8333H113.167C113.034 62.8333 112.907 62.886 112.813 62.9798C112.719 63.0735 112.667 63.2007 112.667 63.3333V69.6666C112.667 69.9426 112.891 70.1666 113.167 70.1666H120.833C120.966 70.1666 121.093 70.114 121.187 70.0202C121.281 69.9264 121.333 69.7993 121.333 69.6666V63.3333C121.333 63.2007 121.281 63.0735 121.187 62.9798C121.093 62.886 120.966 62.8333 120.833 62.8333ZM117 65.5C117.265 65.5 117.52 65.6053 117.707 65.7929C117.895 65.9804 118 66.2348 118 66.5C118 66.7652 117.895 67.0195 117.707 67.2071C117.52 67.3946 117.265 67.5 117 67.5C116.735 67.5 116.481 67.3946 116.293 67.2071C116.105 67.0195 116 66.7652 116 66.5C116 66.2348 116.105 65.9804 116.293 65.7929C116.481 65.6053 116.735 65.5 117 65.5ZM117 58.8333C116.558 58.8333 116.134 59.0089 115.822 59.3215C115.509 59.634 115.333 60.058 115.333 60.5V61.8333H118.667V60.5C118.667 60.058 118.491 59.634 118.179 59.3215C117.866 59.0089 117.442 58.8333 117 58.8333Z" fill="#5E6064"/>
</g>
<text id="address-url" fill="#202020" style="white-space: pre" xml:space="preserve" font-family="Segoe UI" font-size="12" letter-spacing="0em"><tspan x="134" y="68.3636">google.com</tspan></text>
<g id="Icons">
<g id="Icon Star Favorites">
<path id="Star 1" d="M801.322 58.1238C801.397 57.9796 801.603 57.9798 801.677 58.1238L803.285 61.2419C803.532 61.7206 803.991 62.0546 804.522 62.1414L807.984 62.7058C808.145 62.732 808.209 62.9292 808.094 63.0447L805.626 65.5369C805.247 65.9195 805.071 66.4587 805.153 66.991L805.685 70.4578C805.71 70.6184 805.543 70.7396 805.398 70.6667L802.264 69.0896C801.783 68.8474 801.216 68.8474 800.735 69.0896L797.602 70.6667C797.457 70.7399 797.29 70.6184 797.314 70.4578L797.847 66.991C797.929 66.4588 797.754 65.9194 797.375 65.5369L794.906 63.0447C794.792 62.9292 794.855 62.7321 795.015 62.7058L798.477 62.1414C799.009 62.0546 799.468 61.7206 799.715 61.2419L801.322 58.1238Z" stroke="#5E6064" stroke-width="1.5"/>
</g>
</g>
</g>
<g id="Icon Right Set">
<g id="Icon Jigsaw Puzzle Plugin">
<path id="Union" fill-rule="evenodd" clip-rule="evenodd" d="M840.026 59.2694H839.505C839.229 59.2694 839.005 59.4933 839.005 59.7694V61.4762H839H836.033V63.0234C837.069 63.0987 837.886 63.963 837.886 65.0181V65.5388C837.886 66.594 837.069 67.4583 836.033 67.5335V69.0808H843.498V66.0375L845.345 66.0388C845.621 66.0388 845.845 65.815 845.845 65.5388V65.0181C845.845 64.742 845.621 64.5181 845.345 64.5181L843.498 64.5227V61.4762L840.526 61.4641V59.7694C840.526 59.4933 840.302 59.2694 840.026 59.2694ZM834.533 66.0388H835.886C836.162 66.0388 836.386 65.815 836.386 65.5388V65.0181C836.386 64.742 836.162 64.5181 835.886 64.5181H834.533V61.2262C834.533 60.5358 835.093 59.9762 835.783 59.9762H837.505V59.7694C837.505 58.6648 838.4 57.7694 839.505 57.7694H840.026C841.13 57.7694 842.026 58.6648 842.026 59.7694V59.9762H843.748C844.438 59.9762 844.998 60.5358 844.998 61.2262V63.0181H845.345C846.449 63.0181 847.345 63.9135 847.345 65.0181V65.5388C847.345 66.6434 846.449 67.5388 845.345 67.5388H844.998V69.3308C844.998 70.0211 844.438 70.5808 843.748 70.5808H835.783C835.093 70.5808 834.533 70.0211 834.533 69.3308L834.533 66.0388Z" fill="#5E6064"/>
</g>
<g id="Icon Line Vertical Divider">
<rect id="vector" x="861.5" y="55.5" width="1" height="18" fill="#5E5E5E"/>
</g>
<g id="Icon Profile">
<circle id="Ellipse 1" cx="884" cy="64.5" r="9" fill="#D9D9D9"/>
<circle id="Ellipse 2" cx="3.41947" cy="3.41947" r="3.41947" transform="matrix(1 0 0 -1 880.581 65.2299)" fill="#757575"/>
<path id="Rectangle 4" d="M877.553 69.8225C877.553 67.6136 879.344 65.8229 881.553 65.8229H886.447C888.656 65.8229 890.446 67.6136 890.446 69.8225H877.553Z" fill="#757575"/>
</g>
<g id="Icon Ellipsis Vertical">
<path id="Vector_8" d="M910 60.9584C909.808 60.9584 909.619 60.9206 909.442 60.8473C909.265 60.7741 909.104 60.6666 908.969 60.5312C908.833 60.3958 908.726 60.235 908.653 60.0581C908.579 59.8812 908.542 59.6915 908.542 59.5C908.542 59.3085 908.579 59.1189 908.653 58.9419C908.726 58.765 908.833 58.6042 908.969 58.4688C909.104 58.3334 909.265 58.226 909.442 58.1527C909.619 58.0794 909.808 58.0417 910 58.0417C910.387 58.0417 910.758 58.1953 911.031 58.4688C911.305 58.7423 911.458 59.1132 911.458 59.5C911.458 59.8868 911.305 60.2577 911.031 60.5312C910.758 60.8047 910.387 60.9584 910 60.9584ZM910 65.9584C909.613 65.9584 909.242 65.8047 908.969 65.5312C908.695 65.2577 908.542 64.8868 908.542 64.5C908.542 64.1132 908.695 63.7423 908.969 63.4688C909.242 63.1953 909.613 63.0417 910 63.0417C910.387 63.0417 910.758 63.1953 911.031 63.4688C911.305 63.7423 911.458 64.1132 911.458 64.5C911.458 64.8868 911.305 65.2577 911.031 65.5312C910.758 65.8047 910.387 65.9584 910 65.9584ZM908.542 69.5C908.542 69.8868 908.695 70.2577 908.969 70.5312C909.242 70.8047 909.613 70.9584 910 70.9584C910.387 70.9584 910.758 70.8047 911.031 70.5312C911.305 70.2577 911.458 69.8868 911.458 69.5C911.458 69.1132 911.305 68.7423 911.031 68.4688C910.758 68.1953 910.387 68.0417 910 68.0417C909.613 68.0417 909.242 68.1953 908.969 68.4688C908.695 68.7423 908.542 69.1132 908.542 69.5Z" fill="#5E6064"/>
</g>
</g>
</g>
</g>
</g>
</g>
<defs>
<linearGradient id="paint0_linear_4106_1226" x1="263.5" y1="14.6352" x2="263.5" y2="8.11711" gradientUnits="userSpaceOnUse">
<stop stop-color="white"/>
<stop offset="1" stop-color="#DFE1E6"/>
</linearGradient>
<clipPath id="clip0_4106_1226">
<rect width="931" height="86" fill="white"/>
</clipPath>
<clipPath id="clip1_4106_1226">
<rect width="931" height="43" fill="white"/>
</clipPath>
<clipPath id="clip2_4106_1226">
<rect width="137" height="43" fill="white" transform="translate(794)"/>
</clipPath>
</defs>
</svg>
